<svg id="Layer_1" data-name="Layer 1" xmlns="http://www.w3.org/2000/svg" viewBox="0 0 288 108"><defs><style>.cls-1{fill:#ed1c24;}.cls-2{fill:#231f20;}.cls-3{fill:#fff;}</style></defs><title>Relationshop-Logo</title><path class="cls-1" d="M159.07,6.23l19.62,68.28a1,1,0,0,0,1,.75h10.19a1,1,0,0,1,1,.77l7.46,28.05a1,1,0,0,0,2,.08L210.3,76a1,1,0,0,1,1-.69h59.55a1,1,0,0,0,1-1l3.52-50.82a1,1,0,0,0-.88-1.1L160.22,4.92A1,1,0,0,0,159.07,6.23Z"/><path class="cls-2" d="M31,29.58a10.34,10.34,0,0,1,7,2.2,7.57,7.57,0,0,1,2.53,6,9.48,9.48,0,0,1-1.3,5,6.63,6.63,0,0,1-4.16,3v.09a5.64,5.64,0,0,1,2.22.88,4.81,4.81,0,0,1,1.37,1.48,6.56,6.56,0,0,1,.75,1.91,21.21,21.21,0,0,1,.37,2.21c.06.76.11,1.54.14,2.33A17.85,17.85,0,0,0,40.19,57a13.35,13.35,0,0,0,.5,2.18,5.4,5.4,0,0,0,1,1.83H37a2.61,2.61,0,0,1-.59-1.32,14.11,14.11,0,0,1-.2-1.87q0-1-.09-2.22a15,15,0,0,0-.26-2.34c-.12-.76-.26-1.49-.44-2.18a5.15,5.15,0,0,0-.84-1.8,4.07,4.07,0,0,0-1.5-1.24,5.48,5.48,0,0,0-2.46-.46H20.41V61H16.23V29.58Zm.88,14.27A6.2,6.2,0,0,0,34.22,43a4.68,4.68,0,0,0,1.58-1.72,5.73,5.73,0,0,0,.6-2.8,5.64,5.64,0,0,0-1.32-3.87,5.44,5.44,0,0,0-4.28-1.5H20.41v11h8.72A17.69,17.69,0,0,0,31.91,43.85Z"/><path class="cls-2" d="M61.24,59.57a10.37,10.37,0,0,1-6.43,1.94,11.86,11.86,0,0,1-4.74-.88,9.39,9.39,0,0,1-3.37-2.47,10.41,10.41,0,0,1-2-3.79,17.73,17.73,0,0,1-.77-4.8,13.7,13.7,0,0,1,.79-4.76,11.56,11.56,0,0,1,2.22-3.74,10.05,10.05,0,0,1,3.39-2.46,10.34,10.34,0,0,1,4.3-.89,9.33,9.33,0,0,1,5,1.26,9.88,9.88,0,0,1,3.21,3.19,12.58,12.58,0,0,1,1.68,4.23,18,18,0,0,1,.37,4.36h-17a9.11,9.11,0,0,0,.35,2.84A6.46,6.46,0,0,0,49.48,56a6.29,6.29,0,0,0,2.24,1.65,7.8,7.8,0,0,0,3.22.62,6.54,6.54,0,0,0,3.9-1.1,5.34,5.34,0,0,0,2-3.35h3.7A9.12,9.12,0,0,1,61.24,59.57ZM60.33,45A6.23,6.23,0,0,0,59,42.9,6.35,6.35,0,0,0,54.37,41a6.62,6.62,0,0,0-2.62.5,6.08,6.08,0,0,0-2,1.39,6.56,6.56,0,0,0-1.32,2,7.94,7.94,0,0,0-.57,2.49H60.93A7.63,7.63,0,0,0,60.33,45Z"/><path class="cls-2" d="M72.07,29.58V61H68.33V29.58Z"/><path class="cls-2" d="M97.39,60.93a5.18,5.18,0,0,1-2.68.58,3.22,3.22,0,0,1-2.32-.82A3.54,3.54,0,0,1,91.54,58,9,9,0,0,1,88,60.69a12.27,12.27,0,0,1-7.36.46,6.78,6.78,0,0,1-2.4-1.1,5.36,5.36,0,0,1-1.61-2A6.64,6.64,0,0,1,76,55.17,6.73,6.73,0,0,1,76.65,52a5.73,5.73,0,0,1,1.74-2,8.17,8.17,0,0,1,2.47-1.17c.92-.26,1.87-.48,2.84-.66s2-.36,2.92-.46a16.17,16.17,0,0,0,2.45-.44,4,4,0,0,0,1.67-.84,2,2,0,0,0,.62-1.61,3.82,3.82,0,0,0-.46-2,3.17,3.17,0,0,0-1.19-1.14,4.81,4.81,0,0,0-1.63-.53A12.07,12.07,0,0,0,86.29,41a7.94,7.94,0,0,0-4,.9,3.83,3.83,0,0,0-1.72,3.41H76.87a8.05,8.05,0,0,1,.88-3.56,6.68,6.68,0,0,1,2.11-2.36,9.12,9.12,0,0,1,3-1.3,16.15,16.15,0,0,1,3.63-.4,22.52,22.52,0,0,1,3.07.22,8,8,0,0,1,2.75.91,5.26,5.26,0,0,1,2,1.91,6.09,6.09,0,0,1,.75,3.2V55.65a9,9,0,0,0,.15,1.94c.11.41.45.61,1,.61A4.37,4.37,0,0,0,97.39,58ZM91.32,49.26a4.76,4.76,0,0,1-1.85.77q-1.16.24-2.4.39c-.84.11-1.69.22-2.54.36a9.46,9.46,0,0,0-2.29.63,4.21,4.21,0,0,0-1.65,1.25A3.52,3.52,0,0,0,80,54.87a3,3,0,0,0,.38,1.56,3.09,3.09,0,0,0,1,1,4.09,4.09,0,0,0,1.38.57,7.6,7.6,0,0,0,1.68.17,8.83,8.83,0,0,0,3.17-.5,6.82,6.82,0,0,0,2.16-1.27,5.19,5.19,0,0,0,1.23-1.67,4.27,4.27,0,0,0,.4-1.68Z"/><path class="cls-2" d="M109.94,38.25v3.31h-4.53V55.69a3.82,3.82,0,0,0,.11,1.06,1.09,1.09,0,0,0,.42.62,1.85,1.85,0,0,0,.86.28,11,11,0,0,0,1.43.07h1.71V61h-2.86a12.79,12.79,0,0,1-2.49-.2,3.61,3.61,0,0,1-1.67-.72,3.09,3.09,0,0,1-1-1.5,8.81,8.81,0,0,1-.31-2.55V41.56H97.79V38.25h3.87V31.43h3.75v6.82Z"/><path class="cls-2" d="M113.64,34.16V29.58h3.75v4.58Zm3.75,4.09V61h-3.75V38.25Z"/><path class="cls-2" d="M122,45a10.64,10.64,0,0,1,2.11-3.79,10,10,0,0,1,3.48-2.53,12.7,12.7,0,0,1,9.54,0,10.13,10.13,0,0,1,3.46,2.53A10.8,10.8,0,0,1,142.71,45a15.16,15.16,0,0,1,.7,4.69,15,15,0,0,1-.7,4.67,10.75,10.75,0,0,1-2.11,3.76,9.71,9.71,0,0,1-3.46,2.51,13,13,0,0,1-9.54,0,9.61,9.61,0,0,1-3.48-2.51A10.59,10.59,0,0,1,122,54.33a15,15,0,0,1-.7-4.67A15.16,15.16,0,0,1,122,45Zm3.81,8.37A7.67,7.67,0,0,0,127.34,56a6.63,6.63,0,0,0,2.27,1.66A6.73,6.73,0,0,0,137.38,56a7.67,7.67,0,0,0,1.52-2.68,12.59,12.59,0,0,0,0-7.36,8,8,0,0,0-1.52-2.71,6.5,6.5,0,0,0-2.27-1.67,6.92,6.92,0,0,0-5.5,0,6.41,6.41,0,0,0-2.27,1.67A8,8,0,0,0,125.82,46a12.59,12.59,0,0,0,0,7.36Z"/><path class="cls-2" d="M150.68,38.25v3.61h.09a7.87,7.87,0,0,1,7.4-4.14,9.91,9.91,0,0,1,3.74.62,6.12,6.12,0,0,1,2.42,1.72,6.34,6.34,0,0,1,1.3,2.62,14,14,0,0,1,.38,3.37V61h-3.75V45.61A4.53,4.53,0,0,0,161,42.26,4.58,4.58,0,0,0,157.64,41a7.52,7.52,0,0,0-3,.53,5.66,5.66,0,0,0-2.09,1.49,6.69,6.69,0,0,0-1.25,2.27,9.19,9.19,0,0,0-.42,2.84V61h-3.74V38.25Z"/><path class="cls-3" d="M181.1,55.94a3.94,3.94,0,0,0,1.39,1.36,6.19,6.19,0,0,0,1.93.73,11.63,11.63,0,0,0,2.23.22,15.17,15.17,0,0,0,1.85-.13,6.67,6.67,0,0,0,1.78-.49,3.34,3.34,0,0,0,1.34-1,2.73,2.73,0,0,0,.53-1.74,2.49,2.49,0,0,0-1.1-2.21,9.61,9.61,0,0,0-2.75-1.21c-1.1-.31-2.3-.58-3.59-.83a19,19,0,0,1-3.59-1.06,7.37,7.37,0,0,1-2.75-1.92,4.93,4.93,0,0,1-1.1-3.43,5.38,5.38,0,0,1,.77-3,6.33,6.33,0,0,1,2-2,9.26,9.26,0,0,1,2.73-1.14,12.56,12.56,0,0,1,3-.38,17.89,17.89,0,0,1,3.56.33,8.34,8.34,0,0,1,2.89,1.15,5.9,5.9,0,0,1,2,2.2,8.26,8.26,0,0,1,.88,3.46h-3.74a3.88,3.88,0,0,0-.57-1.83,4,4,0,0,0-1.24-1.17,5.54,5.54,0,0,0-1.65-.63,8,8,0,0,0-1.82-.2,10.91,10.91,0,0,0-1.7.13,5.79,5.79,0,0,0-1.56.46,3.21,3.21,0,0,0-1.15.88,2.26,2.26,0,0,0-.44,1.43,2.11,2.11,0,0,0,.68,1.61,5.51,5.51,0,0,0,1.74,1.06,15.27,15.27,0,0,0,2.38.7l2.64.6a25.51,25.51,0,0,1,2.76.75,9,9,0,0,1,2.37,1.16,5.88,5.88,0,0,1,1.68,1.83,5.46,5.46,0,0,1,.64,2.73,6.38,6.38,0,0,1-.86,3.44A6.67,6.67,0,0,1,193,60a9.34,9.34,0,0,1-3.12,1.17,18.59,18.59,0,0,1-3.46.33,15.66,15.66,0,0,1-3.61-.4,8.77,8.77,0,0,1-3-1.3,6.6,6.6,0,0,1-2.12-2.38,8.36,8.36,0,0,1-.88-3.59h3.75A4.27,4.27,0,0,0,181.1,55.94Z"/><path class="cls-3" d="M202.81,29.58v12h.09a4.9,4.9,0,0,1,1.23-1.78,6.81,6.81,0,0,1,1.79-1.19,9.33,9.33,0,0,1,2.07-.69,10.92,10.92,0,0,1,2.09-.22,9.87,9.87,0,0,1,3.74.62,6.12,6.12,0,0,1,2.42,1.72,6.34,6.34,0,0,1,1.3,2.62,14,14,0,0,1,.38,3.37V61h-3.75V45.61a4.53,4.53,0,0,0-1.23-3.35A4.58,4.58,0,0,0,209.55,41a7.44,7.44,0,0,0-3,.53,5.62,5.62,0,0,0-2.1,1.49,6.69,6.69,0,0,0-1.25,2.27,9.19,9.19,0,0,0-.42,2.84V61h-3.74V29.58Z"/><path class="cls-3" d="M221.84,45A10.64,10.64,0,0,1,224,41.18a10,10,0,0,1,3.48-2.53,11.52,11.52,0,0,1,4.76-.93,11.4,11.4,0,0,1,4.77.93,10,10,0,0,1,3.46,2.53A10.66,10.66,0,0,1,242.54,45a15.16,15.16,0,0,1,.7,4.69,15,15,0,0,1-.7,4.67,10.61,10.61,0,0,1-2.12,3.76A9.62,9.62,0,0,1,237,60.6a11.57,11.57,0,0,1-4.77.91,11.68,11.68,0,0,1-4.76-.91A9.61,9.61,0,0,1,224,58.09a10.59,10.59,0,0,1-2.11-3.76,15,15,0,0,1-.71-4.67A15.16,15.16,0,0,1,221.84,45Zm3.81,8.37A7.52,7.52,0,0,0,227.17,56a6.69,6.69,0,0,0,2.26,1.66A6.74,6.74,0,0,0,237.21,56a7.83,7.83,0,0,0,1.52-2.68,12.59,12.59,0,0,0,0-7.36,8.17,8.17,0,0,0-1.52-2.71,6.59,6.59,0,0,0-2.27-1.67,6.94,6.94,0,0,0-5.51,0,6.46,6.46,0,0,0-2.26,1.67A7.83,7.83,0,0,0,225.65,46a12.59,12.59,0,0,0,0,7.36Z"/><path class="cls-3" d="M250.33,38.25v3.09h.09a5.61,5.61,0,0,1,2.91-2.76,10.87,10.87,0,0,1,4.36-.86,10.36,10.36,0,0,1,4.6,1,9.52,9.52,0,0,1,3.26,2.62,11.87,11.87,0,0,1,2,3.81,15.61,15.61,0,0,1,.66,4.58,16.19,16.19,0,0,1-.64,4.58,10.79,10.79,0,0,1-1.94,3.77,9.08,9.08,0,0,1-3.26,2.53,10.49,10.49,0,0,1-4.56.93,11.45,11.45,0,0,1-3.92-.75,8.43,8.43,0,0,1-1.91-1.08,6.07,6.07,0,0,1-1.52-1.7h-.09V69.7h-3.74V38.25Zm13.46,8.08a8.42,8.42,0,0,0-1.28-2.7,6.22,6.22,0,0,0-2.2-1.9,6.71,6.71,0,0,0-3.15-.7,6.19,6.19,0,0,0-5.38,2.71,8.26,8.26,0,0,0-1.21,2.75,13.5,13.5,0,0,0,0,6.36,8.21,8.21,0,0,0,1.26,2.76,6.34,6.34,0,0,0,2.22,1.91,6.89,6.89,0,0,0,3.31.73,6.35,6.35,0,0,0,3.23-.75,6,6,0,0,0,2.1-2,8.66,8.66,0,0,0,1.14-2.82,14.67,14.67,0,0,0,.35-3.26A12.07,12.07,0,0,0,263.79,46.33Z"/><path class="cls-3" d="M271.58,35.87a2.49,2.49,0,1,1-2.48-2.42A2.44,2.44,0,0,1,271.58,35.87Zm-4.36,0a1.88,1.88,0,0,0,1.89,1.94,1.94,1.94,0,0,0,0-3.87A1.88,1.88,0,0,0,267.22,35.87Zm1.49,1.27h-.56V34.72a5.51,5.51,0,0,1,.93-.07,1.42,1.42,0,0,1,.84.18.64.64,0,0,1,.24.53.63.63,0,0,1-.5.56v0a.68.68,0,0,1,.44.59,1.92,1.92,0,0,0,.18.6h-.61a2.51,2.51,0,0,1-.19-.59c0-.26-.19-.38-.5-.38h-.27Zm0-1.37H269c.3,0,.56-.1.56-.35s-.17-.37-.52-.37a1.09,1.09,0,0,0-.31,0Z"/></svg>